<svg xmlns="http://www.w3.org/2000/svg" fill="none" viewBox="0 0 80 80"><path fill="#000" d="M39.697 37.69c-.648 0-1.173.525-1.173 1.172v7.166c0 9.975-8.115 18.09-18.09 18.09-9.974 0-18.09-8.115-18.09-18.09v-7.166a1.172 1.172 0 00-2.344 0v7.166c0 9.765 6.885 17.95 16.055 19.96l-.735 5.505h-4.945a5.772 5.772 0 00-5.765 5.765A2.745 2.745 0 007.35 80h26.166a2.745 2.745 0 002.742-2.742 5.772 5.772 0 00-5.765-5.765h-4.945l-.735-5.504c9.17-2.01 16.055-10.196 16.055-19.96v-7.167c0-.647-.525-1.172-1.172-1.172zm-5.782 39.568c0 .22-.178.398-.398.398H7.351a.398.398 0 01-.397-.398 3.425 3.425 0 013.42-3.42h20.12a3.425 3.425 0 013.42 3.42zm-10.731-5.765h-5.499l.686-5.134a20.576 20.576 0 004.127 0l.686 5.134zM48.211 10.293h23.445a1.172 1.172 0 100-2.344H48.211a1.172 1.172 0 100 2.344zM48.211 19.166h23.445a1.172 1.172 0 100-2.344H48.211a1.172 1.172 0 100 2.344z"/><path fill="#000" d="M9.01 53.192c.57-.309.78-1.02.471-1.59a12.47 12.47 0 01-1.502-5.936v-1.82h24.91v1.82c0 6.868-5.587 12.456-12.455 12.456-2.8 0-5.446-.908-7.65-2.626a1.172 1.172 0 00-1.441 1.85 14.655 14.655 0 009.091 3.12c8.161 0 14.8-6.639 14.8-14.8V26.508c0-8.16-6.639-14.8-14.8-14.8-8.16 0-14.8 6.64-14.8 14.8v19.158c0 2.464.618 4.904 1.787 7.056.31.569 1.02.78 1.59.47zm11.424-39.14c6.013 0 11.044 4.283 12.204 9.958h-7.494a1.172 1.172 0 100 2.345h7.742c0 .05.004.101.004.153v2.954h-7.746a1.172 1.172 0 100 2.345h7.746v3.107h-7.746a1.172 1.172 0 100 2.345h7.746V41.5H7.979v-4.242h7.745a1.172 1.172 0 100-2.345H7.98v-3.107h7.745a1.172 1.172 0 100-2.345H7.98v-2.954c0-.052.003-.102.004-.153h7.741a1.172 1.172 0 100-2.345H8.231c1.16-5.675 6.19-9.958 12.203-9.958zM70.59 0H47.818c-5.125 0-9.294 4.17-9.294 9.294v2.138a1.172 1.172 0 002.345 0V9.294a6.957 6.957 0 016.949-6.95H70.59a6.957 6.957 0 016.95 6.95v9.757a6.957 6.957 0 01-6.95 6.95H57.487c-1.159 0-2.258.559-2.94 1.496l-5.563 7.65v-5.804c0-1.694-1.137-3.144-2.764-3.527a6.92 6.92 0 01-5.351-6.765v-2.138a1.172 1.172 0 10-2.345 0v2.138a9.255 9.255 0 007.16 9.047c.553.13.956.654.956 1.245v7.135c0 1.847 2.371 2.618 3.457 1.124l6.347-8.726a1.293 1.293 0 011.043-.531H70.59c5.125 0 9.294-4.17 9.294-9.294V9.294C79.884 4.169 75.714 0 70.59 0z"/></svg>