<svg xmlns="http://www.w3.org/2000/svg" fill="none" viewBox="0 0 496 496"><path fill="#000" d="M472 224h-8v-16c0-8.824-7.176-16-16-16h-48c-8.824 0-16 7.176-16 16v16c0 8.824 7.176 16 16 16h-56l-3.176-4.24A24.215 24.215 0 01336 221.296c0-6.44 2.504-12.496 7.056-17.048l10.312-10.312c17.848-17.848 28.36-41.032 30.24-65.936H384c8.824 0 16-7.176 16-16V96c0-8.824-7.176-16-16-16h-.408C379.536 35.216 341.824 0 296 0h-8.232c-38.232 0-70.904 27.104-78.528 64H208c-8.824 0-16 7.176-16 16v48c0 8.824 7.176 16 16 16v8h-16c-8.824 0-16 7.176-16 16v8c0 5.616 1.024 10.984 2.8 16H176c-17.648 0-32 14.352-32 32s14.352 32 32 32h77.408c-20.728 10.536-37.792 27.304-48.624 48H56c-22.056 0-40 17.944-40 40a39.991 39.991 0 008.112 24.112C19.088 374.792 16 383.008 16 392c0 22.056 17.944 40 40 40h97.864c12.952 0 25.768-1.768 38.136-5.168V496h304V328c0-15.824-5.192-30.424-13.88-42.32C490.296 281.848 496 273.608 496 264v-16c0-13.232-10.768-24-24-24zM56 320h40v32H56c-7.232 0-13.92 2.08-19.784 5.448C33.544 353.504 32 348.848 32 344c0-13.232 10.768-24 24-24zm0 96c-13.232 0-24-10.768-24-24s10.768-24 24-24h40v48H56zm416-176c4.408 0 8 3.584 8 8v16c0 4.416-3.592 8-8 8h-2.848c-6.272-5.064-13.416-9.048-21.152-11.8V240h24zm8 96v80H368v-80h64v-16h-59.24c7.088-8.656 11.24-19.6 11.24-31.024v-.056c10.512-10.752 24.888-16.92 40-16.92 28.152 0 51.456 20.912 55.36 48H448v16h32zm-272 96h144v16H208v-16zm144-16H219.816c3.024-1.56 6-3.216 8.92-4.992L352 335.976V416zm16 16h112v16H368v-16zm64-192v16.472a71.478 71.478 0 00-8-.472c-2.688 0-5.36.168-8 .464V240h16zm-32-32h48v16h-48v-16zm0 52.184a71.874 71.874 0 00-19.56 10.544A48.897 48.897 0 00371.128 256H400v4.184zm-57.944-77.56l-10.32 10.312c-7.568 7.576-11.736 17.648-11.736 28.36 0 6.792 1.824 13.504 5.104 19.432-1.624.216-3.24.488-4.848.816v-.04l-30.144 3.168c-.712.088-1.4.248-2.112.352v-1.808c0-13.176-.816-26.336-2.04-39.448l19.608-3.92-3.136-15.688-18.168 3.632c-2.104-15.952-5.016-31.792-8.92-47.4L272.248 128h95.368c-1.84 20.632-10.736 39.8-25.56 54.624zM272 96h16v16h-16V96zm112 16h-80V96h80v16zm-96.232-96H296c36.992 0 67.536 28.056 71.528 64H272c0-8.824-7.176-16-16-16h-30.32c7.296-27.864 32.616-48 62.088-48zM208 80h48l.008 48H208V80zm48 64c1.256 0 2.464-.184 3.64-.456l.176.712c3.84 15.368 6.72 30.96 8.752 46.664l-1.912.384a34.992 34.992 0 01-6.984.696C240 192 224 176 224 156.328V144h32zm-64 24h17.376A51.605 51.605 0 00224 193.616V208c-17.648 0-32-14.352-32-32v-8zm-32 56c0-8.824 7.176-16 16-16h12.32c8.792 9.792 21.504 16 35.68 16 8.824 0 16-7.176 16-16v-3.912A51.337 51.337 0 00259.672 208c3.424 0 6.832-.344 10.136-1.008l.384-.08c.984 11 1.624 22.032 1.712 33.08H176c-8.824.008-16-7.168-16-15.992zm119.72 38.976l-59.696 46.432c12.624-22.792 34.176-39.76 59.696-46.432zM112 320h85.944a112.234 112.234 0 00-2.504 8.52l-17.184 13.368c-8.384 6.52-18.848 10.112-29.472 10.112H112v-32zm0 96v-48h36.784c14.168 0 28.12-4.792 39.296-13.488l110.656-86.064C309.064 260.424 321.952 256 335.024 256 353.208 256 368 270.8 368 288.976c0 11.432-6.064 22.216-15.832 28.16l-131.752 80.2A127.978 127.978 0 01153.864 416H112zm96 48h144v16H208v-16zm160 16v-16h112v16H368z"/><path fill="#000" d="M72 288c17.648 0 32-14.352 32-32s-14.352-32-32-32-32 14.352-32 32 14.352 32 32 32zm0-48c8.824 0 16 7.176 16 16s-7.176 16-16 16-16-7.176-16-16 7.176-16 16-16zM464 64c17.648 0 32-14.352 32-32S481.648 0 464 0s-32 14.352-32 32 14.352 32 32 32zm0-48c8.824 0 16 7.176 16 16s-7.176 16-16 16-16-7.176-16-16 7.176-16 16-16zM48 168c0-13.232-10.768-24-24-24S0 154.768 0 168s10.768 24 24 24 24-10.768 24-24zm-32 0c0-4.416 3.592-8 8-8 4.408 0 8 3.584 8 8s-3.592 8-8 8c-4.408 0-8-3.584-8-8zM112 112c13.232 0 24-10.768 24-24s-10.768-24-24-24-24 10.768-24 24 10.768 24 24 24zm0-32c4.408 0 8 3.584 8 8s-3.592 8-8 8c-4.408 0-8-3.584-8-8s3.592-8 8-8zM440 128c13.232 0 24-10.768 24-24s-10.768-24-24-24-24 10.768-24 24 10.768 24 24 24zm0-32c4.408 0 8 3.584 8 8s-3.592 8-8 8c-4.408 0-8-3.584-8-8s3.592-8 8-8z"/></svg>