<svg xmlns="http://www.w3.org/2000/svg" fill="none" viewBox="0 0 496 496"><path fill="#000" d="M80 254.84V272h16v-17.16c9.24-2.928 16-11.48 16-21.672 0-8.696-4.832-16.528-12.624-20.424l-15.6-7.792a6.81 6.81 0 01-3.776-6.12A6.839 6.839 0 0186.832 192h2.336A6.839 6.839 0 0196 198.832V200h16v-1.168c0-10.192-6.76-18.744-16-21.672V160H80v17.16c-9.24 2.928-16 11.48-16 21.672 0 8.696 4.832 16.528 12.624 20.424l15.6 7.792a6.81 6.81 0 013.776 6.12A6.839 6.839 0 0189.168 240h-2.336A6.839 6.839 0 0180 233.168V224H64v9.168c0 10.192 6.76 18.744 16 21.672z"/><path fill="#000" d="M88 304c48.52 0 88-39.48 88-88 0-2.192-.168-4.344-.328-6.504l27.136-4.528C207.8 216.16 218.984 224 232 224c17.648 0 32-14.352 32-32 0-2.912-.52-5.68-1.248-8.36l58.36-33.352C326.928 156.264 335.024 160 344 160c17.648 0 32-14.352 32-32 0-5.92-1.72-11.392-4.536-16.152L456 27.312V72h16V0h-72v16h44.688l-84.536 84.536C355.392 97.72 349.92 96 344 96c-17.648 0-32 14.352-32 32 0 2.912.52 5.68 1.248 8.36l-58.36 33.352C249.072 163.736 240.976 160 232 160c-16.68 0-30.256 12.872-31.712 29.176l-27.256 4.544C163.128 155.968 128.816 128 88 128c-48.52 0-88 39.48-88 88s39.48 88 88 88zm256-192c8.824 0 16 7.176 16 16s-7.176 16-16 16-16-7.176-16-16 7.176-16 16-16zm-112 64c8.824 0 16 7.176 16 16s-7.176 16-16 16-16-7.176-16-16 7.176-16 16-16zM88 144c39.696 0 72 32.304 72 72s-32.304 72-72 72-72-32.304-72-72 32.304-72 72-72zM16 496h80V320H16v176zm16-160h48v144H32V336zM112 496h80V336h-80v160zm16-144h48v128h-48V352z"/><path fill="#000" d="M208 496h80V240h-80v256zm16-240h48v224h-48V256zM424 369.16V352h-16v17.16c-9.24 2.928-16 11.48-16 21.672 0 8.696 4.832 16.52 12.624 20.424l15.6 7.8a6.79 6.79 0 013.776 6.112c0 3.76-3.064 6.832-6.832 6.832h-2.336c-3.768 0-6.832-3.072-6.832-6.832V416h-16v9.168c0 10.2 6.76 18.752 16 21.672V464h16v-17.16c9.24-2.928 16-11.48 16-21.672 0-8.696-4.832-16.52-12.624-20.424l-15.6-7.8a6.79 6.79 0 01-3.776-6.112c0-3.76 3.064-6.832 6.832-6.832h2.336c3.768 0 6.832 3.072 6.832 6.832V392h16v-1.168c0-10.192-6.76-18.744-16-21.672z"/><path fill="#000" d="M483.84 370.248l-27.168-43.472 14.216-49.752c.736-2.6 1.112-5.28 1.112-7.968C472 253.032 458.968 240 442.952 240h-21.896c-11.304 0-21.008 6.552-25.808 16H384v-80h-80v320h112c44.112 0 80-35.888 80-80v-3.352a79.929 79.929 0 00-12.16-42.4zM408 269.056c0-7.2 5.856-13.056 13.048-13.056h21.896c7.2 0 13.056 5.856 13.056 13.056a12.97 12.97 0 01-.504 3.584L441.968 320h-54.656l-23.032-23.032a14.738 14.738 0 01-4.28-10.344c0-8.064 6.56-14.624 14.632-14.624H392v16h16v-18.944zM320 480V192h48v64.768c-13.704 3.04-24 15.256-24 29.856 0 8.184 3.184 15.872 8.976 21.656l20.872 20.872-25.68 41.096a79.865 79.865 0 00-12.168 42.4V416c0 26.184 12.704 49.4 32.208 64H320zm160-64c0 35.288-28.712 64-64 64s-64-28.712-64-64v-3.352a63.855 63.855 0 019.728-33.912L388.432 336h55.136l26.704 42.736A63.855 63.855 0 01480 412.648V416z"/></svg>