<svg width="398" height="512" viewBox="0 0 398 512" fill="none" xmlns="http://www.w3.org/2000/svg">
<path d="M371.684 0H26.3161C11.9641 0 0.288086 11.677 0.288086 26.028V92.731C0.288086 107.083 11.9641 118.759 26.3161 118.759H170.64C174.782 118.759 178.14 115.402 178.14 111.259C178.14 107.116 174.782 103.759 170.64 103.759H26.3161C20.2351 103.759 15.2881 98.812 15.2881 92.731V26.028C15.2881 19.947 20.2351 15 26.3161 15H371.683C377.764 15 382.711 19.947 382.711 26.028V92.731C382.711 98.812 377.764 103.759 371.683 103.759H259.53V83.065C270.754 91.646 287.983 91.424 297.392 80.209C300.055 77.036 299.641 72.306 296.468 69.643C293.296 66.981 288.565 67.394 285.902 70.567C283.916 72.931 280.622 74.185 277.595 74.185C269.431 74.185 262.789 67.543 262.789 59.379C262.789 51.215 269.431 44.573 277.595 44.573C280.563 44.573 283.424 45.446 285.867 47.097C289.299 49.414 293.962 48.513 296.28 45.081C298.599 41.648 297.697 36.986 294.264 34.667C289.33 31.334 283.566 29.572 277.594 29.572C261.896 29.572 249.002 41.773 247.877 57.189C244.927 54.932 241.541 53.22 237.87 52.197L237.723 37C237.683 32.882 234.333 29.572 230.225 29.572C230.201 29.572 230.176 29.572 230.151 29.572C226.009 29.612 222.684 33.003 222.724 37.144L222.868 51.977C221.711 52.261 220.574 52.615 219.462 53.036L205.551 32.893C203.686 30.192 200.281 29.019 197.148 29.995C194.014 30.972 191.88 33.873 191.88 37.155V81.683C191.88 86.072 196.02 89.667 200.339 89.115V180.855C188.366 174.037 172.783 176.658 163.627 186.913C150.601 172.308 126.512 174.487 116.286 191.144C97.4141 175.398 67.7491 189.364 67.7491 213.877V320.5C67.7491 349.396 81.2541 377.155 91.0461 403.85C94.5951 413.538 94.3381 423.482 94.3381 433.594C83.2401 435.045 74.6411 444.555 74.6411 456.042V489.353C74.6411 501.841 84.8001 512 97.2881 512H114.498C118.64 512 121.998 508.643 121.998 504.5C121.998 500.357 118.64 497 114.498 497H97.2881C93.0711 497 89.6411 493.569 89.6411 489.353V456.042C89.6411 451.826 93.0711 448.396 97.2881 448.396H256.581C260.798 448.396 264.228 451.827 264.228 456.042V489.353C264.228 493.57 260.798 497 256.581 497H149.5C145.358 497 142 500.357 142 504.5C142 508.643 145.358 512 149.5 512H256.583C269.071 512 279.23 501.841 279.23 489.353V456.042C279.23 444.554 270.63 435.043 259.53 433.594C259.53 415.659 256.591 395.032 267.543 379.561C295.399 340.171 330.931 301.643 325.935 249.763L321.933 208.148C320.897 194.671 309.638 184.278 296.147 184.278C295.995 184.278 295.841 184.28 295.689 184.282C281.706 184.546 270.33 196.339 270.33 210.571V239.711C270.33 248.398 265.569 254.803 259.53 260.474V118.76H371.683C386.035 118.76 397.711 107.083 397.711 92.732V26.028C397.712 11.677 386.036 0 371.684 0V0ZM273.893 267.323C281.268 259.947 285.33 250.141 285.33 239.71V210.57C285.33 204.455 290.103 199.389 295.96 199.279C296.024 199.278 296.088 199.277 296.152 199.277C301.826 199.277 306.564 203.661 306.979 209.338C306.983 209.395 306.988 209.451 306.994 209.508L311.004 251.199C315.553 298.436 280.689 334.993 255.298 370.896C242.127 389.5 244.529 411.873 244.529 433.395H109.34C109.34 421.524 109.295 410.053 105.131 398.686C96.0201 373.847 82.7501 347.387 82.7501 320.499V213.88C82.7501 205.982 89.4351 199.28 97.3501 199.28C105.4 199.28 111.95 205.83 111.95 213.88V227C111.95 231.143 115.308 234.5 119.45 234.5C123.592 234.5 126.95 231.143 126.95 227V206.6C126.95 198.702 133.634 192 141.55 192C149.589 192 156.133 198.543 156.14 206.586V227C156.14 231.143 159.498 234.5 163.64 234.5C167.782 234.5 171.14 231.143 171.14 227V206.592C171.153 198.699 177.823 192 185.74 192C193.79 192 200.34 198.55 200.34 206.6V227C200.34 231.143 203.698 234.5 207.84 234.5C211.982 234.5 215.34 231.143 215.34 227V80.71C215.34 72.817 222.023 66.11 229.94 66.11C237.985 66.11 244.53 72.66 244.53 80.71V278.58C244.53 285.027 252.717 288.504 257.333 283.883L273.893 267.323Z" fill="black"/>
<path d="M113.041 34.845C111.722 31.642 108.634 29.574 105.171 29.574C105.168 29.574 105.164 29.574 105.16 29.574C101.693 29.578 98.6052 31.654 97.2932 34.863C97.2702 34.919 97.2482 34.975 97.2262 35.033L80.4752 79.016C79.0012 82.886 80.9442 87.219 84.8142 88.694C88.6882 90.171 93.0182 88.226 94.4922 84.354L96.8242 78.231H113.385L115.688 84.334C117.135 88.166 121.534 90.144 125.353 88.702C129.228 87.24 131.185 82.913 129.722 79.037L113.123 35.052C113.097 34.982 113.069 34.913 113.041 34.845ZM102.538 63.231L105.144 56.39L107.725 63.231H102.538Z" fill="black"/>
<path d="M50.833 29.574C46.691 29.574 43.333 32.931 43.333 37.074V81.648C43.333 85.304 45.97 88.427 49.574 89.042C50.105 89.132 61.42 89.177 66.496 89.148C70.638 89.125 73.977 85.749 73.954 81.606C73.931 77.478 70.578 74.148 66.455 74.148C66.441 74.148 66.427 74.148 66.413 74.148C63.689 74.164 60.83 74.175 58.333 74.181V37.074C58.333 32.932 54.975 29.574 50.833 29.574Z" fill="black"/>
<path d="M316.295 29.574C312.153 29.574 308.795 32.931 308.795 37.074V81.685C308.795 85.828 312.153 89.185 316.295 89.185C320.437 89.185 323.795 85.828 323.795 81.685V66.114H339.667V81.685C339.667 85.828 343.025 89.185 347.167 89.185C351.309 89.185 354.667 85.828 354.667 81.685V37.074C354.667 32.931 351.309 29.574 347.167 29.574C343.025 29.574 339.667 32.931 339.667 37.074V51.114H323.795V37.074C323.795 32.932 320.437 29.574 316.295 29.574Z" fill="black"/>
<path d="M143.734 29.574C139.592 29.574 136.234 32.931 136.234 37.074V67.771C136.234 95.651 182.233 95.519 182.233 67.739V37.074C182.233 32.931 178.875 29.574 174.733 29.574C170.591 29.574 167.233 32.931 167.233 37.074V67.739C167.233 76.062 151.234 76.161 151.234 67.771V37.074C151.234 32.932 147.876 29.574 143.734 29.574Z" fill="black"/>
<path d="M237.402 475.686C238.988 471.859 237.172 467.47 233.344 465.884C229.517 464.297 225.128 466.114 223.542 469.941C221.955 473.769 223.772 478.157 227.599 479.744C231.427 481.33 235.815 479.514 237.402 475.686Z" fill="black"/>
</svg>
