<svg xmlns="http://www.w3.org/2000/svg" fill="none" viewBox="0 0 448 480"><path fill="#000" d="M448 226v-36a37.98 37.98 0 00-16-30.968V128A128.143 128.143 0 00304 0h-37.833a67.785 67.785 0 00-37.72 11.42L224 14.385l-4.447-2.964A67.779 67.779 0 00181.833 0H144a126.913 126.913 0 00-76.816 25.6L76.8 38.4A111.026 111.026 0 01144 16h37.833a51.834 51.834 0 0128.845 8.734l8.884 5.923a7.999 7.999 0 008.876 0l8.884-5.924A51.84 51.84 0 01266.167 16H304a112.127 112.127 0 01112 112v24h-23.1l-81.718-18.573c-35.056-7.967-65.6-35.672-79.714-72.3a7.996 7.996 0 00-7.465-5.124 7.999 7.999 0 00-7.465 5.124c-14.113 36.63-44.658 64.336-79.714 72.3L55.1 152H32v-24a111.635 111.635 0 0129.865-76.145l-11.73-10.88A127.586 127.586 0 0016 128v31.032A37.981 37.981 0 000 190v36a37.984 37.984 0 0016.448 31.281A128.821 128.821 0 0016 268a125.404 125.404 0 004.231 32.5C7.32 314.837 0 334.778 0 356c0 41.907 28.71 76 64 76a54.638 54.638 0 0017.8-2.958A48.087 48.087 0 00128 464v8a8.002 8.002 0 008 8h176a8 8 0 008-8v-8a48.083 48.083 0 0046.2-34.956A54.636 54.636 0 00384 432c31.192 0 57.707-26.428 63.046-62.839l-15.83-2.322C427.038 395.325 407.182 416 384 416a39.016 39.016 0 01-16-3.431V326a37.875 37.875 0 00-11.034-26.747 68.399 68.399 0 0037-35.253H410a37.986 37.986 0 005.911-.46c.059 1.487.089 2.973.089 4.46a108.808 108.808 0 01-4.841 32.344 8.007 8.007 0 002.087 8.135c11.039 10.645 17.843 26.646 18.667 43.9l15.983-.764c-.932-19.491-8.2-37.837-20.128-51.116A125.376 125.376 0 00432 268c0-3.574-.151-7.161-.448-10.718A37.983 37.983 0 00448 226zM16 190a22.024 22.024 0 0122-22h10v80H38a22.028 22.028 0 01-22-22v-36zm0 166c0-18.708 6.836-36.029 18.754-47.521a7.997 7.997 0 002.086-8.135A108.814 108.814 0 0132 268c0-1.485.03-2.972.089-4.46 1.955.307 3.932.461 5.911.46h16.035a68.4 68.4 0 0037 35.253A37.876 37.876 0 0080 326v86.568A39.033 39.033 0 0164 416c-26.468 0-48-26.916-48-60zm336 36h-32v-4.71a57.6 57.6 0 0016-40V344h-16v3.29a41.738 41.738 0 01-12.3 29.7l-1.355 1.355A7.998 7.998 0 00304 384v79.677a41.857 41.857 0 01-36.543-37.5l-9.468-94.688L283.2 350.4a7.993 7.993 0 007.186 1.236 7.989 7.989 0 005.204-5.106L309.766 304H330a22.027 22.027 0 0122 22v66zm-102.44 16h-51.12l8.954-89.546L224 306l16.606 12.454L249.56 408zm34.361-77.06L248 304h44.9l-8.979 26.94zm-119.842 0L155.1 304H200l-35.921 26.94zM138.234 304l14.176 42.53a8 8 0 0012.39 3.87l25.211-18.909-9.468 94.688A41.855 41.855 0 01144 463.677V384a8.003 8.003 0 00-2.343-5.657l-1.356-1.356a41.72 41.72 0 01-12.3-29.7V344H112v3.29a57.596 57.596 0 0016 40V392H96v-66a22.024 22.024 0 0122-22h20.234zM96 416v-8h32v40a32.038 32.038 0 01-32-32zm82.841 48a57.869 57.869 0 0017.622-36.229l.377-3.771h54.32l.377 3.771A57.869 57.869 0 00269.159 464h-90.318zM352 416a32.038 32.038 0 01-32 32v-40h32v8zm-20-128H116a52.06 52.06 0 01-52-52v-1.754l56 14a32.014 32.014 0 103.886-15.522L64 217.754v-51.368l76.367-17.356c34.774-7.9 65.592-32.534 83.633-65.941 18.041 33.407 48.859 58.038 83.632 65.941L384 166.386V236a52.058 52.058 0 01-52 52zm-196-40a15.998 15.998 0 0119.121-15.693 16.012 16.012 0 018.193 4.379 16.005 16.005 0 01-2.425 24.617A15.991 15.991 0 01152 264a16.016 16.016 0 01-16-16zm296-22a22.027 22.027 0 01-22 22h-10v-80h10a22.027 22.027 0 0122 22v36z"/><path fill="#000" d="M152 168a41.833 41.833 0 00-34.438 18.248l-7.905-7.905-11.314 11.314 16 16a7.993 7.993 0 007.763 2.057 7.999 7.999 0 005.637-5.72C130.388 191.736 140.814 184 152 184a24.022 24.022 0 0116.962 7.038A24.022 24.022 0 01176 208h16a40.045 40.045 0 00-40-40zM330.438 186.248A41.833 41.833 0 00296 168a40.045 40.045 0 00-40 40h16a24.022 24.022 0 017.038-16.962A24.022 24.022 0 01296 184c11.186 0 21.612 7.736 24.253 17.994a7.999 7.999 0 0013.4 3.663l16-16-11.314-11.314-7.901 7.905zM224 248a16.016 16.016 0 01-16-16h-16a31.996 31.996 0 009.373 22.627 31.996 31.996 0 0045.254 0A31.996 31.996 0 00256 232h-16a16.016 16.016 0 01-16 16z"/></svg>