<svg xmlns="http://www.w3.org/2000/svg" fill="none" viewBox="0 0 85 80"><path fill="#000" d="M39.571 41.415c1.003.364 9.715-5.304 10.72-5.71a3.098 3.098 0 001.565-2.71 3.097 3.097 0 00-1.565-2.71l-9.155-5.286c-1.983-1.237-4.774.374-4.694 2.71V38.28c-.044 1.69 1.459 3.161 3.13 3.135zm-.645-13.706c.064-.598.513-.767.968-.559l9.155 5.286c.45.338.45.779 0 1.117l-9.155 5.286c-.54.213-.883.016-.968-.559V27.71z"/><path fill="#000" d="M29.496 22.695a1.242 1.242 0 00-1.72.358 17.404 17.404 0 00-2.847 9.564c0 9.635 7.838 17.474 17.473 17.474 9.635 0 17.474-7.839 17.474-17.474s-7.839-17.474-17.474-17.474a17.354 17.354 0 00-10.17 3.263 1.242 1.242 0 001.448 2.02 14.883 14.883 0 018.722-2.798c8.265 0 14.99 6.724 14.99 14.99 0 8.264-6.725 14.988-14.99 14.988s-14.989-6.724-14.989-14.989c0-2.928.844-5.764 2.441-8.202a1.242 1.242 0 00-.358-1.72z"/><path fill="#000" d="M84.803 7.87c0-4.339-3.53-7.868-7.867-7.868h-9.193a1.242 1.242 0 100 2.484h9.193a5.389 5.389 0 015.383 5.383v44.935a18.165 18.165 0 00-2.572-3.387c.002-.031.004-.062.004-.093V9.594a4.56 4.56 0 00-4.554-4.554H9.608a4.56 4.56 0 00-4.555 4.555v46.044a4.56 4.56 0 004.555 4.555H22.03a1.242 1.242 0 100-2.484H9.608a2.073 2.073 0 01-2.07-2.07V9.594c0-1.142.928-2.07 2.07-2.07h65.589c1.141 0 2.07.928 2.07 2.07v37.674a17.955 17.955 0 00-10.517-3.39c-8.5 0-15.647 5.907-17.554 13.83H27.827a1.242 1.242 0 100 2.485H48.78c-.078.815-.104 1.66-.067 2.485H7.869a5.388 5.388 0 01-5.383-5.382V7.87c0-2.918 2.54-5.383 5.549-5.383h53.911a1.242 1.242 0 100-2.484H8.035C3.822-.092-.09 3.636.002 7.869v49.428c0 4.338 3.529 7.866 7.867 7.866h21.014l-2.878 5.396h-5.217a4.726 4.726 0 00-4.72 4.72A4.726 4.726 0 0020.787 80h43.219c.325 0 .649-.035.966-.1a18.15 18.15 0 001.776.087c9.955 0 18.054-8.099 18.054-18.054v-.055V7.869zM31.699 65.162h17.287a17.924 17.924 0 001.908 5.396H28.82l2.878-5.396zM20.788 77.516a2.239 2.239 0 01-2.236-2.236 2.239 2.239 0 012.236-2.236h31.741a18.188 18.188 0 005.113 4.472H20.788zm45.962-.014c-8.585 0-15.57-6.984-15.57-15.569 0-8.584 6.985-15.569 15.57-15.569 8.584 0 15.569 6.985 15.569 15.57 0 8.584-6.985 15.568-15.57 15.568z"/><path fill="#000" d="M71.139 57.544a1.242 1.242 0 102.484 0c0-2.734-2.39-5.018-5.548-5.525V50.09a1.242 1.242 0 10-2.485 0v1.903c-3.24.453-5.714 2.769-5.714 5.55 0 2.782 2.474 5.097 5.714 5.55v6.258c-1.838-.375-3.23-1.61-3.23-3.03a1.242 1.242 0 10-2.484 0c0 2.782 2.474 5.097 5.714 5.55v1.904a1.242 1.242 0 102.485 0v-1.928c3.158-.508 5.548-2.792 5.548-5.526 0-2.733-2.39-5.018-5.548-5.525V54.55c1.755.414 3.064 1.618 3.064 2.994zm-8.778 0c0-1.42 1.391-2.654 3.23-3.03v6.06c-1.839-.375-3.23-1.61-3.23-3.03zm8.778 8.778c0 1.377-1.31 2.58-3.064 2.994v-5.987c1.755.414 3.064 1.617 3.064 2.993z"/></svg>