<svg xmlns="http://www.w3.org/2000/svg" fill="none" viewBox="0 0 496 496"><path fill="#000" d="M224 144h24c12.92 0 24.536-7.176 30.312-18.736l.84-1.688-14.312-7.16-.84 1.696c-3.048 6.096-9.176 9.888-16 9.888h-24v16zM80 224h24c12.92 0 24.536-7.176 30.312-18.736l.84-1.688-14.312-7.16-.84 1.696c-3.048 6.096-9.176 9.888-16 9.888H80v16zM72.78 131.536l14.304-7.152 15.992 31.984-14.304 7.152-15.992-31.984zM104.764 131.544l14.304-7.152 15.992 31.984-14.304 7.152-15.992-31.984zM376.652 115.608l14.304-7.152 15.992 31.984-14.304 7.152-15.992-31.984zM408.636 115.616l14.304-7.152 15.992 31.984-14.304 7.152-15.992-31.984z"/><path fill="#000" d="M496 136c0-48.52-39.48-88-88-88-33.256 0-62.256 18.552-77.216 45.84l3.272-13.096A64.858 64.858 0 00336 64.984C336 29.152 306.848 0 271.016 0h-46.032C189.152 0 160 29.152 160 64.984c0 5.32.656 10.624 1.944 15.76l.888 3.552C147.768 71.376 128.4 64 108.224 64H90.232c-19 0-35.496 13.52-39.224 32.16l-1.92 9.6C29.368 112.896 16 131.648 16 153.144c0 5.424.864 10.768 2.576 15.888l2.152 6.456C17.792 180.32 16 185.936 16 192c0 17.648 14.352 32 32 32h.808c2.312 11.352 9.544 20.832 19.264 26.48l-2.312 6.944C26.824 269.16 0 304.944 0 345.968V472.84l85.6-8.56c26.776 20.48 59.888 31.72 93.624 31.72H264c13.232 0 24-10.768 24-24 0-2.816-.576-5.488-1.472-8H296c13.232 0 24-10.768 24-24 0-2.848-.584-5.536-1.496-8.072 33.136-.376 65.584-11.52 91.896-31.648l85.6 8.56V288.664c0-14.736-4.872-28.4-13.168-39.408C491.344 238.416 496 225.144 496 211.16V136zm-88-72c39.696 0 72 32.296 72 72v75.16c0 9.624-3.04 18.736-8.496 26.424-7.28-5.824-15.864-10.176-25.368-12.488l-4.504-13.512C455.576 200.44 464 183.488 464 164.92V128h-16v36.92c0 18.016-10.816 33.984-27.536 40.68-7.968 3.184-16.96 3.184-24.92 0C378.816 198.904 368 182.936 368 164.92V128h-16v36.92c0 18.568 8.424 35.52 22.376 46.656l-4.504 13.52c-9.368 2.288-17.968 6.624-25.336 12.528-5.48-7.696-8.536-16.824-8.536-26.464V136c0-39.704 32.304-72 72-72zm-89.76 320.928c1.112-2.768 1.76-5.768 1.76-8.928 0-10.336-6.6-19.088-15.784-22.456.872-11.68 6.096-22.472 14.616-30.36 7.736 8.064 18.456 12.816 30.072 12.816H352v-16h-3.096c-9.84 0-18.672-5.472-23.104-14.352-5.424-10.88-16.344-17.648-28.496-17.648h-9.336c-8.8 0-15.968-7.176-15.968-16h44.776c29.976 0 59.344 9.992 83.224 28.048v87.896c-19.024 14.384-41.528 23.56-65.056 26.712.616-2.12 1.056-4.328 1.056-6.656 0-11.064-7.56-20.312-17.76-23.072zM160 176c8.824 0 16 7.176 16 16s-7.176 16-16 16v-32zm32-48c-8.824 0-16-7.176-16-16s7.176-16 16-16v32zm0 16h.808c2.312 11.352 9.544 20.832 19.264 26.48l-2.312 6.944c-6.488 1.952-12.648 4.632-18.488 7.904-.688-3.24-1.976-6.232-3.568-9.024 2.8-8.464 4.296-17.24 4.296-26.192v-2.336c0-1.264-.112-2.528-.168-3.792.056 0 .112.016.168.016zm112-48c8.824 0 16 7.176 16 16s-7.176 16-16 16V96zm85.6 124.464A49.355 49.355 0 00408 224a49.355 49.355 0 0018.4-3.536c.392-.16.744-.392 1.136-.552L432 233.304V240h-48v-6.696l4.464-13.4c.392.168.744.4 1.136.56zm18.944 65.952c-3.112-2.304-6.288-4.512-9.552-6.576-6.672-6.536-11.304-14.856-13.504-23.84h45.024c-3.024 12.576-10.808 23.456-21.968 30.416zm-36.584-20.024a154.414 154.414 0 00-25.952-7.456c5.624-7.464 13.24-13.144 21.992-16.448v1.736c0 7.608 1.416 15.096 3.96 22.168zm-43.424-9.904c-3.912-.304-7.832-.488-11.76-.488H272c-1.032 0-2.04.12-3.024.304l-4.272-14.944 4.24-6.36 23.448 18.752 13.8-48.296a76.541 76.541 0 0114.544 14.752c1.552 10.64 5.8 20.608 12.464 29.08-1.72 2.272-3.248 4.696-4.664 7.2zM232 176h32c1.624 0 3.168-.288 4.744-.48l1.848 5.536L248 198l-22.584-16.936 1.848-5.536c1.568.184 3.112.472 4.736.472zm29.064 32.2l20.528-15.392a76.68 76.68 0 0110.44 3.976l-8.416 29.456-22.552-18.04zm-46.608-15.36l20.48 15.36-22.544 18.04-8.408-29.416c3.368-1.584 6.864-2.896 10.472-3.984zM248 218.248l8.408 6.72L251.72 232h-7.44l-4.688-7.032 8.408-6.72zM246.032 248h3.936l6.248 21.872c-.096.704-.216 1.4-.216 2.128 0 5.856 1.696 11.272 4.448 16h-25.84l11.424-40zm57.16-104H304c5.856 0 11.272-1.696 16-4.448v56.496c-9.784-8.464-21.264-14.856-33.76-18.624l-2.312-6.944c9.72-5.648 16.952-15.128 19.264-26.48zM288 136c0 13.232-10.768 24-24 24h-32c-13.232 0-24-10.768-24-24V86.832c0-5.744 3-10.936 7.904-13.808 7.008 9.944 18.144 16.816 31.144 18.12L288 95.24V136zm-128.808 88H160c12.336 0 22.944-7.088 28.28-17.344.504-.408 1.032-.76 1.544-1.152l13.784 48.256 23.448-18.752 4.24 6.36L217.968 288H200c-3.768 0-7.296.952-10.472 2.504-11.832-15.832-28.272-27.368-47.288-33.088l-2.312-6.944c9.72-5.64 16.952-15.12 19.264-26.472zm-21.616 48.816c3.6 1.08 7.12 2.336 10.472 3.904l-8.44 29.52-22.544-18.04 20.512-15.384zM104 298.248l8.408 6.72L107.72 312h-7.44l-4.688-7.032 8.408-6.72zM102.032 328h3.936l2.64 9.248a153.663 153.663 0 00-11 6.248L102.032 328zm21.328 2.656l-2.656-9.296 4.24-6.36 13.344 10.68a156.2 156.2 0 00-14.928 4.976zm38.84-45.232c6.088 4.704 11.448 10.344 15.944 16.784C176.792 305.2 176 308.504 176 312c0 2.848.584 5.536 1.496 8.072-8.728.096-17.392.968-25.92 2.536l10.624-37.184zM192 312c0-4.416 3.592-8 8-8h97.304c4.856 0 9.24 2.24 12.224 5.944-3.488 3.008-6.544 6.416-9.248 10.056H200c-4.408 0-8-3.584-8-8zm99.72 24c-1.832 5.112-2.968 10.48-3.408 16H235.52c2.752-4.728 4.448-10.144 4.448-16.008h51.752V336zM448 244.224v-1.784a49.144 49.144 0 0131.304 38.384l-45.76 4.576C442.736 273.96 448 259.584 448 244.224zM224.984 16h46.032C298.024 16 320 37.976 320 64.984c0 4.008-.496 8.008-1.464 11.88l-1.496 5.976C313.048 81.048 308.656 80 304 80h-7.584l-47.776-4.776A27.268 27.268 0 01224 48h-16c0 3.592.432 7.088 1.256 10.432C200.672 62.888 194.792 70.808 192.8 80h-.8c-4.656 0-9.048 1.048-13.04 2.84l-1.496-5.984A48.935 48.935 0 01176 64.984C176 37.976 197.976 16 224.984 16zM32 192c0-8.824 7.176-16 16-16v32c-8.824 0-16-7.176-16-16zm16-48v16c-5.184 0-10.008 1.352-14.344 3.552A34.29 34.29 0 0132 152.984a34.19 34.19 0 0125.944-33.224l4.912-1.224 3.848-19.232C68.936 88.12 78.832 80 90.232 80h17.992c20.408 0 39.728 9.4 52.552 25.168-.488 2.208-.776 4.48-.776 6.832 0 11.552 6.208 21.592 15.4 27.224.352 2.832.6 5.68.6 8.552v2.336c0 4.592-.504 9.12-1.416 13.576C170.192 161.408 165.28 160 160 160v-16h-16v72c0 13.232-10.768 24-24 24H88c-13.232 0-24-10.768-24-24v-72H48zm40 112h32c1.624 0 3.168-.288 4.744-.48l1.848 5.536L104 278l-22.584-16.936 1.848-5.536c1.568.184 3.112.472 4.736.472zm-17.592 16.8l20.536 15.4-22.552 18.04-8.424-29.464a77.437 77.437 0 0110.44-3.976zm-24.616 12.576l13.824 48.376L83.064 315l4.24 6.36-8.48 29.68-62.76-6.272a76.302 76.302 0 0129.728-59.392zM16 360.84l64 6.4v81.528l-64 6.392v-94.32zM296 448H192v16h72c4.408 0 8 3.584 8 8s-3.592 8-8 8h-84.776c-29.976 0-59.344-9.992-83.224-28.048v-87.904C119.88 345.992 149.248 336 179.224 336h44.744c0 8.824-7.168 16-15.968 16v.008h-16v16L296 368c4.408 0 8 3.584 8 8s-3.592 8-8 8H192v16h120c4.408 0 8 3.584 8 8s-3.592 8-8 8H192v16h104c4.408 0 8 3.584 8 8s-3.592 8-8 8zm120-63.24v-81.52l64-6.4v94.312l-64-6.392z"/></svg>