<svg xmlns="http://www.w3.org/2000/svg" fill="none" viewBox="0 0 80 80"><path fill="#000" d="M76 0H4a4 4 0 00-4 4v72a4 4 0 004 4h72a4 4 0 004-4V4a4 4 0 00-4-4zm1.333 76A1.333 1.333 0 0176 77.333H4A1.333 1.333 0 012.667 76V13.333h74.666V76zM2.667 10.667V4A1.333 1.333 0 014 2.667h72A1.333 1.333 0 0177.333 4v6.667H2.667z"/><path fill="#000" d="M6.16 5.44a1.2 1.2 0 00-.72.72 1.256 1.256 0 000 1.013c.064.163.16.313.28.44.13.118.278.213.44.28.16.069.332.105.507.107.085-.002.17-.011.253-.027a.8.8 0 00.253-.08c.085-.029.166-.07.24-.12.07-.049.137-.102.2-.16a1.352 1.352 0 000-1.893 1.356 1.356 0 00-1.453-.28zM12.507 5.44a1.222 1.222 0 00-1.014 0 1.2 1.2 0 00-.72.72 1.257 1.257 0 000 1.013c.065.164.16.313.28.44.13.118.279.213.44.28a1.257 1.257 0 001.014 0c.163-.064.312-.16.44-.28a1.352 1.352 0 000-1.893 1.377 1.377 0 00-.44-.28zM18.28 5.72a1.333 1.333 0 00-1.453-.28c-.162.068-.31.162-.44.28-.12.127-.216.277-.28.44a1.256 1.256 0 000 1.013c.064.164.16.313.28.44.13.118.278.213.44.28.16.069.332.105.506.107.353-.005.691-.143.947-.387.12-.127.216-.276.28-.44a1.257 1.257 0 000-1.013 1.376 1.376 0 00-.28-.44zM9.333 74.667h61.334a4 4 0 004-4V20a4 4 0 00-4-4h-40a4 4 0 00-4 4v14.667H9.333a4 4 0 00-4 4v32a4 4 0 004 4zm-1.333-4v-1.334h21.333v1.334A1.333 1.333 0 0128 72H9.333A1.334 1.334 0 018 70.667zm0-28h21.333v24H8v-24zM72 64H32V38.667a4 4 0 00-2.667-3.755v-8.245H72V64zm-21.333 6.667a1.334 1.334 0 110-2.668 1.334 1.334 0 010 2.668zM47.707 72H31.755c.158-.427.24-.878.245-1.333v-4h15.707a3.938 3.938 0 000 5.333zm22.96 0h-17.04a3.939 3.939 0 000-5.333H72v4A1.334 1.334 0 0170.667 72zm-40-53.333h40A1.333 1.333 0 0172 20v4H29.333v-4a1.333 1.333 0 011.334-1.333zM9.333 37.333H28a1.333 1.333 0 011.333 1.334V40H8v-1.333a1.333 1.333 0 011.333-1.334z"/><path fill="#000" d="M50.667 22.667c.353-.006.69-.144.946-.387.246-.254.384-.593.387-.947a1.332 1.332 0 00-.107-.506 1.243 1.243 0 00-.28-.44 1.396 1.396 0 00-1.893 0 1.243 1.243 0 00-.28.44c-.068.16-.105.332-.107.506.003.354.141.693.387.947.256.243.594.381.947.387z"/></svg>