<svg width="510" height="513" viewBox="0 0 510 513" fill="none" xmlns="http://www.w3.org/2000/svg">
<path d="M489.645 395.396C477.419 383.171 461.135 376.227 444.292 375.488L424.915 356.111C435.985 337.986 444.089 318.437 449.069 297.845H499.182V201.005H449.069C444.09 180.414 435.986 160.866 424.915 142.74L460.364 107.291L391.889 38.816L356.44 74.264C338.315 63.196 318.766 55.093 298.174 50.113V0H201.335V50.113C180.743 55.092 161.194 63.197 143.07 74.266L107.62 38.818L39.1449 107.293L74.5929 142.742C63.5229 160.867 55.4189 180.416 50.4399 201.007H0.325928V297.847H50.4399C55.4189 318.44 63.5239 337.989 74.5929 356.113L39.1449 391.562L107.62 460.037L143.07 424.589C161.194 435.658 180.743 443.762 201.335 448.742V498.856H298.174V448.742C318.766 443.763 338.315 435.658 356.439 424.589L373.151 441.301C372.556 459.931 379.574 478.473 393.074 491.972C406.16 505.058 423.573 512.002 441.33 512.002C450.012 512.002 458.776 510.342 467.156 506.927L477.61 502.667L433.065 458.123L437.914 440.239L455.796 435.39L500.342 479.935L504.602 469.481C514.999 443.958 509.128 414.88 489.645 395.396ZM353.41 408.772C333.704 421.618 312.079 430.583 289.131 435.416L283.18 436.669V483.862H216.325V436.669L210.374 435.416C187.429 430.583 165.802 421.618 146.095 408.772L141.001 405.452L107.617 438.835L60.3439 391.56L93.7269 358.176L90.4059 353.082C77.5599 333.377 68.5959 311.751 63.7619 288.803L62.5089 282.852H15.3189V215.996H62.5099L63.7629 210.045C68.5959 187.101 77.5599 165.475 90.4069 145.767L93.7279 140.673L60.3449 107.289L107.619 60.015L141.004 93.4L146.098 90.08C165.804 77.233 187.43 68.269 210.377 63.436L216.328 62.183V14.993H283.183V62.185L289.134 63.438C312.08 68.271 333.707 77.236 353.413 90.082L358.507 93.402L391.891 60.019L439.165 107.293L405.781 140.677L409.102 145.771C421.949 165.479 430.913 187.105 435.746 210.049L436.999 216H484.191V282.856H436.999L435.746 288.807C430.914 311.752 421.949 333.38 409.102 353.086L407.025 356.27L344.576 293.818L337.984 287.226C343.12 275.288 345.72 262.599 345.72 249.43C345.72 196.516 302.671 153.466 249.757 153.466C196.843 153.466 153.794 196.515 153.794 249.43C153.794 302.344 196.843 345.393 249.757 345.393C262.878 345.393 275.525 342.811 287.428 337.71L355.468 405.754L356.486 406.772L353.41 408.772ZM305.372 206.003C285.89 186.519 256.81 180.647 231.29 191.046L220.835 195.306L265.381 239.851L260.532 257.734L242.649 262.583L198.104 218.038L193.844 228.492C183.447 254.012 189.318 283.091 208.8 302.575C225.059 318.834 248.494 325.752 270.877 321.157L275.826 326.106C267.484 328.952 258.754 330.398 249.755 330.398C205.108 330.398 168.784 294.074 168.784 249.427C168.784 204.779 205.108 168.455 249.755 168.455C294.402 168.455 330.726 204.779 330.726 249.427C330.726 258.475 329.266 267.248 326.389 275.631L322.982 272.224C329.31 248.814 322.647 223.277 305.372 206.003ZM493.964 452.354L460.256 418.646L425.694 428.018L416.322 462.58L450.03 496.289C433.304 499.058 416.021 493.716 403.674 481.369C392.254 469.949 386.784 453.903 388.375 438.157C388.438 437.545 388.508 436.935 388.592 436.326C388.633 436.023 388.672 435.719 388.719 435.418C388.856 434.539 389.015 433.667 389.195 432.798C389.24 432.582 389.285 432.366 389.333 432.15C389.535 431.233 389.757 430.32 390.007 429.417C390.048 429.268 390.093 429.12 390.135 428.971C390.383 428.103 390.653 427.244 390.944 426.391C391.962 424.254 397.688 412.696 406.073 404.312L395.473 393.711C389.828 399.356 385.288 405.966 382.133 411.218L332.844 361.927L290.524 319.604H290.523L275.434 304.514L271.231 305.665C252.767 310.731 232.907 305.482 219.4 291.976C207.054 279.629 201.711 262.345 204.481 245.619L238.189 279.327L272.751 269.954L282.123 235.393L248.414 201.684C265.141 198.919 282.425 204.258 294.771 216.604C309.139 230.972 314.1 252.664 307.411 271.868L306.104 275.62C303.947 279.389 300.527 284.686 296.297 288.917L306.898 299.516C310.847 295.567 314.148 291.06 316.672 287.117L423.009 393.46L427.211 392.309C428.359 391.994 429.513 391.719 430.669 391.483C430.873 391.441 431.079 391.407 431.284 391.368C431.655 391.297 432.025 391.224 432.395 391.161C432.709 391.108 433.024 391.064 433.338 391.016C433.604 390.976 433.87 390.931 434.136 390.895C434.44 390.854 434.745 390.822 435.048 390.786C435.331 390.752 435.615 390.714 435.898 390.686C436.111 390.664 436.325 390.65 436.539 390.631C436.92 390.597 437.301 390.56 437.68 390.535C437.735 390.531 437.791 390.53 437.847 390.526C453.001 389.542 468.104 395.06 479.041 405.999C491.391 418.344 496.734 435.628 493.964 452.354Z" fill="black"/>
<path d="M306.259 312.035L317.159 322.936L327.76 312.335L316.859 301.435L306.259 312.035Z" fill="black"/>
<path d="M330.224 336.01L365.964 371.75L376.564 361.15L340.824 325.41L330.224 336.01Z" fill="black"/>
<path d="M286.578 382.296L290.598 396.739C296.882 394.99 303.107 392.811 309.104 390.264L303.243 376.465C297.843 378.76 292.236 380.721 286.578 382.296Z" fill="black"/>
<path d="M249.785 387.297C174.315 387.297 112.915 325.897 112.915 250.427C112.915 242.634 113.575 234.825 114.875 227.212L100.097 224.688C98.6549 233.13 97.9229 241.791 97.9229 250.427C97.9229 334.164 166.048 402.288 249.784 402.288C254.706 402.288 259.674 402.05 264.547 401.578L263.107 386.656C258.71 387.081 254.228 387.297 249.785 387.297Z" fill="black"/>
<path d="M155.1 151.593L144.727 140.769C140.447 144.871 136.366 149.267 132.596 153.836L144.16 163.378C147.559 159.257 151.24 155.291 155.1 151.593Z" fill="black"/>
<path d="M249.785 113.556C265.872 113.556 281.62 116.319 296.592 121.767L301.719 107.679C285.098 101.63 267.625 98.564 249.785 98.564C216.411 98.564 184.744 109.184 158.205 129.276L167.254 141.228C191.166 123.125 219.706 113.556 249.785 113.556Z" fill="black"/>
</svg>
